<svg xmlns="http://www.w3.org/2000/svg" width="15" height="15" viewBox="0 0 15 15"><g clip-path="url(#a)"><path d="M14.679 12.175 11.533 9.03a1.1 1.1 0 0 0-.788-.32q-.46 0-.832.372L7.695 6.863l1.092-1.091q.12-.122.121-.295a.4.4 0 0 0-.121-.295l.104.109q.086.09.113.108.026.017.099.087t.117.086.117.052a.6.6 0 0 0 .143.048.86.86 0 0 0 .745-.23l.157-.143q.129-.117.177-.165a3 3 0 0 0 .143-.16q.096-.112.135-.19t.078-.191a.803.803 0 0 0-.204-.815L7.175.243a.8.8 0 0 0-.814-.204 2 2 0 0 0-.19.078q-.079.038-.191.135a3 3 0 0 0-.16.143 6 6 0 0 0-.165.177l-.143.156a.84.84 0 0 0-.23.745.6.6 0 0 0 .048.143l.052.117q.017.044.086.117a1 1 0 0 1 .087.1 1 1 0 0 0 .108.113l.109.104a.4.4 0 0 0-.295-.121.4.4 0 0 0-.295.12L2.166 5.184a.4.4 0 0 0-.121.294.4.4 0 0 0 .121.295l-.104-.109a1 1 0 0 0-.112-.108 1 1 0 0 1-.1-.086.4.4 0 0 0-.117-.087l-.117-.052a.6.6 0 0 0-.143-.048.85.85 0 0 0-.745.23q-.026.026-.156.143a6 6 0 0 0-.178.165q-.047.047-.143.16a1 1 0 0 0-.134.19 2 2 0 0 0-.078.191.7.7 0 0 0-.039.226q0 .346.243.589l3.535 3.535a.8.8 0 0 0 .815.204 2 2 0 0 0 .19-.078q.079-.039.19-.134.114-.096.161-.143.048-.048.165-.178t.143-.156a.84.84 0 0 0 .23-.745.6.6 0 0 0-.048-.143l-.052-.117a.4.4 0 0 0-.087-.118 1 1 0 0 1-.086-.1 1 1 0 0 0-.109-.112l-.108-.104a.4.4 0 0 0 .295.121.4.4 0 0 0 .294-.121l1.092-1.092 2.218 2.218q-.372.373-.372.832 0 .468.329.78l3.146 3.154q.32.32.78.32.45 0 .788-.32l.927-.936q.321-.32.321-.78 0-.45-.321-.788"/></g><defs><clipPath id="a"><path fill="#fff" d="M0 0h15v15H0z"/></clipPath></defs></svg>