<svg xmlns="http://www.w3.org/2000/svg" width="17" height="15" viewBox="0 0 17 15"><path d="M14.444 4.6H2.31c-.636 0-1.155-.52-1.155-1.155 0-.636.52-1.156 1.155-1.156h2.311c.347 0 .578-.23.578-.577s-.231-.578-.578-.578H2.311A2.32 2.32 0 0 0 0 3.445v9.244A2.32 2.32 0 0 0 2.311 15h12.133c.982 0 1.733-.751 1.733-1.733V6.334c0-.982-.751-1.734-1.733-1.734m.578 3.351v3.698c-.174-.058-.347-.115-.578-.115h-2.311A1.7 1.7 0 0 1 10.4 9.8c0-.982.75-1.733 1.733-1.733h2.31c.232 0 .405-.058.579-.116"/><path d="M2.889 2.867c-.347 0-.578.231-.578.578s.231.578.578.578h10.977c.174 0 .347-.116.463-.231a.56.56 0 0 0 .057-.52L13.231.382c-.116-.288-.462-.461-.751-.346L5.084 2.867zM13.288 9.222h-1.155c-.347 0-.578.232-.578.578 0 .347.231.578.578.578h1.155c.347 0 .578-.231.578-.578 0-.346-.23-.578-.578-.578"/></svg>