<svg xmlns="http://www.w3.org/2000/svg" width="89" height="51" fill="none" viewBox="0 0 89 51"><defs><linearGradient id="b" x1="5.338" x2="87.599" y1="4.914" y2="21.051" gradientUnits="userSpaceOnUse"><stop stop-color="#E72A33"/><stop offset="1" stop-color="#2E327A"/></linearGradient><clipPath id="a"><rect width="88" height="50" fill="#fff" fill-opacity="0" rx="0" transform="translate(.5 .5)"/></clipPath></defs><rect width="88" height="50" fill="none" rx="0" transform="translate(.5 .5)"/><g clip-path="url(#a)"><path fill="url(#b)" d="M83.41 0c-.06 3.45.01 5.88.22 7.27.21 1.4.7 2.87 1.49 4.42l-1.59.79c-.8-1.84-1.85-3.23-3.15-4.19-1.3-.96-2.8-1.44-4.51-1.44-2.48 0-4.53.93-6.15 2.79-.62.71-1.12 1.49-1.5 2.35-.29-1.12-.74-2.08-1.36-2.87-1.17-1.48-2.79-2.23-4.89-2.23-3.03 0-5.27 1.72-6.73 5.15l-.22-.12-1.3-.7c.75-1.33 1.18-2.65 1.27-3.95h-5.48v9.76c0 1.54-.35 2.72-1.03 3.54-.68.82-1.66 1.22-2.95 1.22-1.28 0-2.28-.4-2.97-1.22-.69-.82-1.03-2-1.03-3.54V7.27h-5.5v5.02c-.11-.22-.23-.44-.36-.66-.93-1.51-2.22-2.69-3.86-3.54-1.65-.85-3.5-1.27-5.55-1.27-2.06 0-3.91.42-5.55 1.27-1.64.85-2.93 2.03-3.86 3.54-.14.22-.26.45-.38.68-.19-1.55-.94-2.82-2.26-3.8-1.52-1.13-3.53-1.69-6.02-1.69-1.5 0-2.83.2-3.98.59-1.16.39-2.1 1.04-2.83 1.95-.73.9-1.1 2.01-1.1 3.32 0 .99.21 1.84.62 2.54.42.71.97 1.24 1.64 1.61.67.37 1.41.67 2.22.9.81.23 1.62.42 2.43.57.81.14 1.55.29 2.22.45.68.16 1.22.39 1.64.71.42.32.62.72.62 1.22 0 .59-.26 1.05-.79 1.38-.53.32-1.26.48-2.22.48-1.09 0-1.93-.22-2.52-.65-.6-.43-.89-1.04-.89-1.81H0c0 2 .78 3.58 2.35 4.75 1.58 1.16 3.69 1.74 6.35 1.74 2.66 0 4.62-.54 6.12-1.64 1.11-.8 1.81-1.81 2.1-3.03.92 1.43 2.17 2.56 3.77 3.39 1.65.85 3.5 1.28 5.55 1.28 2.06 0 3.91-.43 5.55-1.28 1.65-.85 2.93-2.02 3.86-3.53.23-.37.43-.75.6-1.14.27 1.45.77 2.65 1.53 3.6 1.17 1.48 2.81 2.22 4.9 2.22 1.52 0 2.83-.42 3.92-1.26 1.09-.83 1.99-2.12 2.72-3.87l.24.13 1.32.69c-.73 1.32-1.16 2.64-1.29 3.95h5.47v-9.77c0-1.54.34-2.72 1.03-3.52.69-.81 1.69-1.22 3.01-1.22 1.32 0 2.31.41 2.99 1.21.68.8 1.02 1.98 1.02 3.53v9.77h5.49v-3.94c.32.56.69 1.08 1.11 1.57 1.62 1.86 3.67 2.79 6.15 2.79 1.69 0 3.17-.48 4.46-1.44s2.33-2.36 3.13-4.2l1.63.78c-.95 1.61-1.45 3.09-1.49 4.44h5.32V0h-5.5ZM14.79 16.36c-.69-.37-1.44-.67-2.27-.91-.83-.24-1.65-.44-2.48-.58-.82-.15-1.58-.3-2.26-.47-.68-.16-1.23-.39-1.66-.7-.42-.3-.63-.69-.63-1.16 0-.53.25-.96.74-1.28.5-.33 1.16-.48 1.98-.48.97 0 1.73.2 2.28.61.56.42.85.97.87 1.66h4.76a9.809 9.809 0 0 0-.69 3.66v.11c-.2-.17-.41-.32-.65-.45l.01-.01Zm15.32 4.09c-.99.96-2.28 1.44-3.86 1.44s-2.9-.48-3.89-1.44c-1-.96-1.5-2.21-1.5-3.75s.5-2.83 1.5-3.79c.99-.95 2.29-1.43 3.89-1.43s2.87.48 3.86 1.43c.99.96 1.49 2.23 1.49 3.79s-.5 2.79-1.49 3.75Zm51.87-.01c-1 .96-2.31 1.44-3.92 1.44-1.61 0-2.89-.47-3.87-1.43-.98-.95-1.48-2.2-1.48-3.75 0-1.56.5-2.83 1.48-3.79s2.28-1.44 3.87-1.44c1.6 0 2.91.48 3.92 1.45 1 .96 1.51 2.22 1.51 3.78 0 1.55-.5 2.77-1.51 3.73v.01Z"/><path fill="#E72A33" d="M7.81 51c-2.25 0-4.12-.75-5.6-2.25C.73 47.26 0 45.37 0 43.08c0-2.28.73-4.16 2.21-5.64 1.48-1.49 3.34-2.23 5.6-2.23 1.81 0 3.4.5 4.76 1.48 1.36.98 2.26 2.3 2.73 3.96h-1.44c-.47-1.28-1.23-2.28-2.29-3.01-1.07-.73-2.31-1.09-3.73-1.09-1.88 0-3.42.61-4.63 1.84-1.22 1.22-1.82 2.79-1.82 4.69 0 1.91.6 3.48 1.81 4.71s2.76 1.85 4.64 1.85c1.47 0 2.75-.39 3.85-1.17 1.09-.77 1.85-1.83 2.28-3.17h1.39c-.45 1.73-1.36 3.1-2.72 4.14-1.36 1.03-2.97 1.55-4.83 1.55V51ZM23.39 50.62c-2.26.17-3.82-.08-4.69-.77-.87-.68-1.3-1.99-1.3-3.93V29.34h1.39v16.55c0 .45.02.83.06 1.14.03.32.09.61.18.88s.21.48.36.64c.16.16.35.3.58.44.23.13.51.21.83.24.32.03.7.06 1.13.09.44.02.93 0 1.47-.06v1.37l-.01-.01ZM29.37 50.96c-1.8 0-3.21-.37-4.2-1.11-1-.74-1.5-1.78-1.5-3.12 0-1.2.4-2.18 1.19-2.95.79-.76 1.88-1.23 3.29-1.4l5.35-.64c1.13-.12 1.93-.35 2.4-.68.46-.33.69-.82.69-1.5 0-.97-.43-1.72-1.3-2.25-.86-.52-2.1-.79-3.7-.79-1.61 0-2.87.28-3.79.84-.91.56-1.52 1.42-1.82 2.59h-1.4c.66-3.16 2.99-4.73 7-4.73 2.04 0 3.61.4 4.72 1.2 1.12.8 1.67 1.94 1.67 3.41v7.81c0 .73.15 1.19.43 1.4.29.21.9.28 1.82.23v1.33c-1.41.12-2.38-.1-2.91-.67-.52-.56-.68-1.56-.46-2.98l-.55-.12c-1.21 2.76-3.53 4.14-6.94 4.14l.01-.01Zm.11-1.32c2.28 0 4.03-.65 5.25-1.96 1.22-1.3 1.94-3.27 2.16-5.91l-.52-.21c-.29.46-.66.8-1.1 1.02-.44.23-1.07.38-1.91.47l-4.95.58c-1.05.11-1.87.45-2.45.99-.59.55-.88 1.24-.88 2.08 0 .96.38 1.69 1.13 2.19.75.5 1.84.75 3.27.75ZM41.98 31.86v-2.5h2.52v2.5h-2.52Zm.58 18.76V35.57h1.41v15.05h-1.41ZM48.17 50.62V35.57h1.41c.01.84-.01 1.49-.05 1.97-.05.48-.14 1.01-.29 1.59l.57.21c1.18-2.75 3.1-4.12 5.76-4.12 1.41 0 2.64.38 3.68 1.15 1.05.76 1.77 1.8 2.16 3.12h.52c.5-1.37 1.27-2.42 2.29-3.16 1.02-.74 2.23-1.11 3.63-1.11 1.96 0 3.52.67 4.71 2.01 1.18 1.35 1.77 3.12 1.77 5.33v8.06h-1.39v-7.89c0-1.89-.48-3.4-1.44-4.51-.96-1.11-2.24-1.67-3.85-1.67-1.7 0-3.09.59-4.14 1.77-1.05 1.18-1.58 2.73-1.58 4.64v7.66h-1.36v-7.89c0-1.89-.48-3.4-1.42-4.51-.95-1.11-2.23-1.67-3.85-1.67-1.69 0-3.06.6-4.13 1.78-1.06 1.19-1.6 2.73-1.6 4.63v7.66h-1.4ZM82.97 51c-1.94 0-3.46-.44-4.57-1.31-1.11-.86-1.71-2.08-1.82-3.65h1.36c.11 1.18.59 2.09 1.44 2.71.86.62 2.05.94 3.59.94 1.44 0 2.57-.26 3.4-.79.82-.53 1.23-1.26 1.23-2.2 0-.62-.2-1.12-.59-1.52-.4-.4-.91-.68-1.54-.86-.63-.17-1.33-.33-2.09-.45-.76-.13-1.52-.27-2.28-.43-.76-.17-1.46-.38-2.1-.65-.63-.27-1.14-.68-1.53-1.24-.4-.55-.6-1.24-.6-2.08 0-1.35.51-2.4 1.53-3.15 1.01-.75 2.38-1.12 4.11-1.12 1.78 0 3.18.4 4.2 1.21 1.03.81 1.6 1.94 1.7 3.41h-1.36c-.17-2.21-1.69-3.31-4.54-3.31-1.43 0-2.49.26-3.2.78-.7.52-1.05 1.24-1.05 2.16 0 .64.2 1.17.6 1.58.39.41.9.71 1.53.9.64.19 1.33.34 2.09.46.76.12 1.52.25 2.28.41.77.16 1.47.37 2.1.62.63.26 1.14.66 1.54 1.21.39.54.59 1.22.59 2.03 0 1.33-.54 2.39-1.61 3.16-1.08.77-2.55 1.16-4.41 1.16V51Z"/></g></svg>