<svg xmlns="http://www.w3.org/2000/svg" width="229" height="29.299" fill="none"><defs><linearGradient id="b" x1="3.823" x2="99.492" y1="-5.179" y2="32.593" gradientUnits="userSpaceOnUse"><stop stop-color="#E72A33"/><stop offset="1" stop-color="#2E327A"/></linearGradient><clipPath id="a"><rect width="228" height="28.299" fill="#fff" fill-opacity="0" rx="0" transform="translate(.5 .5)"/></clipPath></defs><rect width="228" height="28.299" rx="0" transform="translate(.5 .5)"/><g clip-path="url(#a)"><path fill="url(#b)" d="M94.98 0c-.06 3.8.02 6.48.25 8.02.24 1.54.8 3.16 1.7 4.87l-1.83.87c-.9-2.02-2.1-3.56-3.58-4.62-1.48-1.05-3.18-1.58-5.13-1.58-2.82 0-5.16 1.02-7 3.06-.7.79-1.28 1.65-1.71 2.59-.33-1.23-.84-2.28-1.55-3.16-1.33-1.63-3.18-2.46-5.56-2.46-3.46 0-6.02 1.9-7.66 5.68l-.26-.13-1.48-.77c.85-1.47 1.34-2.92 1.44-4.35h-6.25v10.75c0 1.69-.38 3-1.16 3.9-.78.9-1.9 1.36-3.35 1.36-1.46 0-2.6-.45-3.39-1.36-.79-.9-1.18-2.2-1.18-3.9V8.02h-6.25v5.52c-.13-.24-.27-.48-.42-.72-1.06-1.67-2.52-2.97-4.4-3.9-1.87-.94-3.98-1.41-6.32-1.41-2.34 0-4.45.47-6.32 1.41-1.88.93-3.34 2.23-4.4 3.9-.16.24-.3.49-.43.75-.21-1.71-1.07-3.11-2.57-4.19-1.74-1.25-4.02-1.87-6.86-1.87-1.71 0-3.22.22-4.53.66-1.32.43-2.39 1.15-3.22 2.15-.83.99-1.25 2.21-1.25 3.66 0 1.09.24 2.03.71 2.81.48.77 1.1 1.36 1.86 1.77.76.41 1.61.74 2.53.99.92.26 1.85.46 2.77.63.92.16 1.77.33 2.53.49.76.18 1.38.44 1.86.79.47.34.71.79.71 1.34 0 .66-.31 1.16-.9 1.51-.6.36-1.45.53-2.53.53-1.24 0-2.2-.23-2.87-.71-.68-.48-1.02-1.14-1.02-2H0c0 2.21.89 3.96 2.68 5.24 1.79 1.29 4.2 1.92 7.23 1.92 3.03 0 5.26-.6 6.97-1.8 1.26-.89 2.06-2 2.39-3.35 1.04 1.58 2.47 2.83 4.29 3.75 1.88.93 3.99 1.41 6.33 1.41s4.45-.47 6.32-1.4c1.88-.94 3.34-2.24 4.4-3.9.26-.41.48-.82.68-1.25.31 1.59.88 2.91 1.75 3.96 1.33 1.63 3.19 2.45 5.57 2.45 1.74 0 3.22-.46 4.47-1.38 1.24-.93 2.27-2.35 3.09-4.27l.28.14 1.5.76c-.82 1.46-1.31 2.9-1.47 4.35h6.23V17.99c0-1.69.39-2.99 1.18-3.88.78-.89 1.92-1.34 3.43-1.34 1.5 0 2.63.44 3.41 1.32.77.88 1.15 2.18 1.15 3.89v10.77h6.26v-4.33c.35.61.77 1.18 1.26 1.73 1.84 2.04 4.18 3.06 7 3.06 1.91 0 3.61-.52 5.07-1.58 1.47-1.06 2.65-2.6 3.57-4.64l1.86.87c-1.09 1.77-1.66 3.41-1.7 4.89h6.06V0h-6.28ZM16.84 18.03c-.78-.41-1.64-.74-2.59-1.01a28.6 28.6 0 0 0-2.82-.64c-.93-.16-1.79-.33-2.57-.51-.77-.18-1.4-.44-1.88-.77-.49-.34-.73-.76-.73-1.28 0-.59.28-1.06.85-1.42.56-.35 1.31-.53 2.25-.53 1.1 0 1.97.23 2.6.68.63.46.96 1.07.99 1.83h5.41c-.52 1.25-.78 2.59-.78 4.03v.12c-.24-.18-.48-.35-.74-.49l.01-.01Zm17.45 4.51c-1.13 1.05-2.6 1.58-4.4 1.58-1.8 0-3.29-.53-4.43-1.58-1.13-1.06-1.7-2.44-1.7-4.13 0-1.7.56-3.12 1.7-4.18 1.14-1.05 2.62-1.58 4.43-1.58 1.81 0 3.27.53 4.4 1.58 1.12 1.06 1.69 2.45 1.69 4.18 0 1.72-.57 3.07-1.69 4.13Zm59.06-.02c-1.14 1.07-2.63 1.6-4.46 1.6-1.84 0-3.29-.53-4.41-1.58-1.13-1.05-1.69-2.43-1.69-4.15 0-1.71.56-3.11 1.69-4.17 1.11-1.06 2.59-1.59 4.41-1.59 1.82 0 3.31.53 4.46 1.6 1.14 1.06 1.72 2.45 1.72 4.16s-.58 3.06-1.72 4.12v.01Z"/><path fill="#E72A33" d="M115.68 29.26c-3.15 0-5.74-1.01-7.81-3.03-2.06-2.02-3.09-4.57-3.09-7.66s1.02-5.61 3.09-7.62c2.05-2.01 4.66-3.01 7.82-3.01 2.53 0 4.74.67 6.64 2 1.89 1.32 3.16 3.11 3.8 5.34h-2c-.65-1.72-1.71-3.08-3.2-4.06-1.49-.98-3.22-1.48-5.21-1.48-2.61 0-4.77.83-6.46 2.49-1.7 1.66-2.54 3.77-2.54 6.34s.84 4.7 2.53 6.37c1.68 1.66 3.84 2.49 6.47 2.49 2.06 0 3.84-.53 5.37-1.58 1.53-1.05 2.6-2.48 3.19-4.28h1.94c-.64 2.33-1.9 4.19-3.8 5.58-1.9 1.4-4.15 2.1-6.73 2.1l-.01.01Zm21.75-.51c-3.15.23-5.33-.12-6.55-1.04-1.21-.92-1.82-2.69-1.82-5.31V0H131v22.35c0 .61.02 1.12.08 1.55.04.43.13.82.25 1.18s.3.65.51.87c.21.21.48.41.81.59.32.19.71.3 1.15.33.45.04.98.08 1.58.11.61.04 1.29.01 2.05-.07v1.85-.01Zm8.35.46c-2.53 0-4.48-.5-5.87-1.5-1.39-1.01-2.08-2.41-2.08-4.21 0-1.62.55-2.94 1.65-3.98 1.11-1.04 2.64-1.67 4.61-1.9l7.46-.86c1.59-.18 2.7-.49 3.34-.93.66-.44.97-1.11.97-2.02 0-1.31-.6-2.33-1.8-3.04-1.2-.71-2.93-1.07-5.18-1.07-2.24 0-4 .38-5.27 1.13-1.28.76-2.12 1.92-2.55 3.5h-1.95c.92-4.26 4.18-6.4 9.77-6.4 2.84 0 5.03.55 6.59 1.62 1.56 1.09 2.33 2.62 2.33 4.62v10.55c0 .97.2 1.6.6 1.88.4.28 1.25.38 2.54.3v1.81c-1.97.16-3.32-.14-4.06-.9-.74-.77-.95-2.11-.65-4.03l-.76-.16c-1.69 3.72-4.93 5.59-9.69 5.59Zm.14-1.78c3.18 0 5.62-.88 7.34-2.65 1.7-1.77 2.71-4.42 3.01-7.98l-.72-.28c-.42.62-.93 1.07-1.55 1.37-.61.31-1.5.52-2.67.64l-6.9.78c-1.47.16-2.61.61-3.43 1.34-.81.74-1.22 1.68-1.22 2.81 0 1.3.53 2.28 1.58 2.96 1.04.67 2.56 1.01 4.56 1.01Zm17.46-24.02V.03h3.51V3.4h-3.51v.01Zm.81 25.34V8.42h1.96v20.33h-1.96Zm7.83 0V8.42h1.96c.02 1.12-.01 2.01-.08 2.65-.06.65-.19 1.37-.4 2.16l.81.28c1.64-3.72 4.32-5.58 8.03-5.58 1.98 0 3.69.52 5.15 1.56 1.46 1.03 2.46 2.44 3.01 4.22h.73c.7-1.85 1.77-3.28 3.19-4.27 1.42-1 3.11-1.51 5.07-1.51 2.72 0 4.91.91 6.56 2.73 1.66 1.82 2.48 4.22 2.48 7.2v10.88h-1.94V18.08c0-2.55-.67-4.59-2-6.09-1.34-1.5-3.13-2.26-5.38-2.26-2.38 0-4.3.8-5.78 2.4-1.47 1.6-2.21 3.69-2.21 6.26v10.35h-1.9V18.08c0-2.55-.66-4.59-1.98-6.09-1.32-1.5-3.12-2.26-5.37-2.26-2.26 0-4.28.8-5.77 2.41-1.49 1.6-2.23 3.69-2.23 6.25v10.35h-1.96l.01.01Zm48.57.51c-2.71 0-4.84-.59-6.38-1.76-1.54-1.16-2.39-2.81-2.54-4.94h1.9c.15 1.61.82 2.82 2.02 3.67 1.19.84 2.86 1.26 5 1.26 2.01 0 3.59-.35 4.74-1.06 1.15-.72 1.72-1.7 1.72-2.97 0-.83-.27-1.52-.82-2.05-.55-.54-1.27-.93-2.15-1.17-.88-.24-1.85-.45-2.9-.61-1.06-.17-2.13-.36-3.19-.58-1.07-.22-2.04-.51-2.93-.87a4.96 4.96 0 0 1-2.14-1.66c-.55-.75-.83-1.69-.83-2.81 0-1.84.72-3.25 2.14-4.27 1.42-1.01 3.33-1.51 5.74-1.51s4.43.55 5.86 1.64c1.44 1.09 2.22 2.62 2.37 4.6h-1.89c-.25-2.98-2.37-4.48-6.34-4.48-2 0-3.49.36-4.47 1.06-.97.7-1.46 1.67-1.46 2.92 0 .86.27 1.58.82 2.13.55.56 1.27.96 2.15 1.21.88.26 1.85.47 2.9.63 1.06.16 2.13.34 3.19.56 1.07.22 2.04.49 2.93.85.88.34 1.59.88 2.14 1.62.55.73.83 1.65.83 2.75 0 1.8-.75 3.23-2.26 4.27-1.5 1.04-3.55 1.56-6.15 1.56v.01Z"/></g></svg>