<svg width="52" height="52" viewBox="0 0 52 52" xmlns="http://www.w3.org/2000/svg">
<path d="M36 27.25C36.6904 27.25 37.25 26.6904 37.25 26C37.25 25.3096 36.6904 24.75 36 24.75L36 27.25ZM15.1161 25.1161C14.628 25.6043 14.628 26.3957 15.1161 26.8839L23.0711 34.8388C23.5592 35.327 24.3507 35.327 24.8388 34.8388C25.327 34.3507 25.327 33.5592 24.8388 33.0711L17.7678 26L24.8388 18.9289C25.327 18.4408 25.327 17.6493 24.8388 17.1612C24.3507 16.673 23.5592 16.673 23.0711 17.1612L15.1161 25.1161ZM36 24.75L16 24.75L16 27.25L36 27.25L36 24.75Z"/>
</svg>
