<svg xmlns="http://www.w3.org/2000/svg" width="15" height="15" viewBox="0 0 15 15"><g clip-path="url(#a)"><path d="M7.5 0C3.366 0 0 3.365 0 7.5 0 11.637 3.365 15 7.5 15c4.136 0 7.5-3.364 7.5-7.5C15 3.366 11.636 0 7.5 0m2.206 10.047c-.209.29-.505.52-.88.681q-.384.166-.843.216v.896a.52.52 0 0 1-1.039 0v-.902a5.5 5.5 0 0 1-1.63-.42.55.55 0 0 1-.241-.198.52.52 0 0 1-.098-.303.52.52 0 0 1 .142-.362.49.49 0 0 1 .37-.158q.12 0 .229.048c.388.173.8.285 1.228.334V7.986a9 9 0 0 1-.702-.235 2.24 2.24 0 0 1-.837-.57c-.243-.262-.366-.613-.366-1.044 0-.372.1-.716.296-1.02.197-.305.488-.55.867-.727q.333-.157.742-.22V3.16a.52.52 0 0 1 1.039 0v.98a5.1 5.1 0 0 1 1.43.296.49.49 0 0 1 .346.494q0 .196-.133.353a.47.47 0 0 1-.566.121 4.4 4.4 0 0 0-1.077-.224v1.935q.524.138.88.278.474.186.813.577.347.407.348 1.077 0 .556-.318 1"/><path d="M8.306 8.376a7 7 0 0 0-.323-.103v1.6c.636-.094.945-.383.945-.88a.45.45 0 0 0-.16-.356 1.4 1.4 0 0 0-.462-.261M6.145 6.074c0 .182.057.325.173.437q.195.185.49.29l.136.045V5.249q-.23.063-.412.173c-.26.158-.387.37-.387.652"/><path fill="transparent" d="M8.863 7.392a8 8 0 0 0-.88-.277V5.18c.367.03.73.105 1.077.225a.468.468 0 0 0 .566-.121.54.54 0 0 0 .133-.354.49.49 0 0 0-.345-.494 5.1 5.1 0 0 0-1.431-.296v-.98a.52.52 0 0 0-1.039 0v1.01q-.409.063-.742.22-.57.268-.866.727a1.85 1.85 0 0 0-.297 1.02c0 .43.123.782.366 1.045.232.252.514.443.838.57q.294.115.701.234V9.88a4.2 4.2 0 0 1-1.228-.334.6.6 0 0 0-.23-.048.49.49 0 0 0-.37.158.52.52 0 0 0-.14.363q0 .161.097.302a.55.55 0 0 0 .241.198c.512.222 1.06.363 1.63.42v.902a.52.52 0 0 0 1.039 0v-.895q.459-.052.843-.217c.375-.161.672-.39.88-.681a1.68 1.68 0 0 0 .319-1c0-.445-.118-.808-.35-1.076a2.05 2.05 0 0 0-.812-.579m-1.919-.546L6.81 6.8a1.4 1.4 0 0 1-.491-.29.57.57 0 0 1-.173-.437c0-.281.127-.495.387-.652q.181-.11.412-.173zm1.039 3.028V8.273q.192.057.323.103.277.097.462.261.161.142.16.356c0 .497-.31.786-.945.88"/></g><defs><clipPath id="a"><path fill="transparent" d="M0 0h15v15H0z"/></clipPath></defs></svg>