<svg xmlns="http://www.w3.org/2000/svg" width="35.25" height="44.75" fill="none"><path stroke-linecap="round" stroke-linejoin="round" stroke-width="2" d="M17.62 36.62V22.37m-7.12 4.75 7.12-4.75 7.13 4.75m9.49-11.87c0-.68-.03-1.11-.13-1.52-.11-.49-.31-.95-.57-1.37-.29-.48-.7-.89-1.52-1.72L24.6 3.22c-.82-.82-1.24-1.23-1.71-1.52a4.63 4.63 0 0 0-1.38-.57C21.1 1.03 20.67 1 20 1H8.59c-2.66 0-3.99 0-5 .51-.9.46-1.62 1.18-2.08 2.08C1 4.6 1 5.94 1 8.6v27.55c0 2.66 0 3.99.51 5 .46.9 1.18 1.62 2.08 2.08 1.01.52 2.34.52 5 .52h18.06c2.66 0 3.99 0 5-.52.89-.46 1.62-1.19 2.08-2.08.52-1.01.52-2.34.52-5V16.02c0-.29 0-.55-.01-.77m.01 0h-6.66c-2.66 0-3.99 0-5-.52-.9-.46-1.62-1.19-2.08-2.08-.51-1.02-.51-2.34-.51-5V1"/></svg>