<svg xmlns="http://www.w3.org/2000/svg" width="112" height="64" fill="none"><defs><clipPath id="a"><rect width="111" height="63" fill="#fff" fill-opacity="0" rx="0" transform="translate(.5 .5)"/></clipPath></defs><rect width="111" height="63" rx="0" transform="translate(.5 .5)"/><g fill="#FFF" clip-path="url(#a)"><path d="M104.97 0c-.08 4.33.02 7.38.28 9.13.26 1.75.88 3.6 1.87 5.54l-2.01.99c-1-2.3-2.32-4.05-3.96-5.26-1.63-1.2-3.52-1.8-5.67-1.8-3.12 0-5.7 1.17-7.74 3.5-.78.89-1.41 1.87-1.89 2.95-.36-1.41-.93-2.62-1.71-3.6-1.47-1.86-3.51-2.8-6.15-2.8-3.82 0-6.64 2.16-8.47 6.46l-.28-.15-1.63-.88c.94-1.67 1.47-3.32 1.6-4.95H62.3v12.24c0 1.93-.43 3.41-1.29 4.44-.86 1.03-2.09 1.54-3.71 1.54-1.61 0-2.87-.51-3.74-1.54-.87-1.03-1.3-2.51-1.3-4.44V9.13h-6.92v6.29c-.14-.28-.29-.55-.45-.82-1.18-1.9-2.8-3.38-4.86-4.44-2.07-1.07-4.4-1.6-6.99-1.6-2.58 0-4.91.53-6.98 1.6-2.07 1.06-3.69 2.54-4.86 4.44-.17.27-.32.56-.47.85-.24-1.95-1.18-3.54-2.84-4.77-1.92-1.41-4.45-2.12-7.58-2.12-1.89 0-3.56.25-5.01.74-1.46.49-2.65 1.31-3.56 2.44C.81 12.88.35 14.27.35 15.91c0 1.25.26 2.31.79 3.19.52.89 1.21 1.56 2.06 2.02.84.47 1.77.84 2.79 1.13 1.02.29 2.04.53 3.06.71 1.02.18 1.95.37 2.8.57.84.2 1.53.49 2.05.89.53.4.79.91.79 1.53 0 .75-.33 1.32-1 1.73-.66.4-1.59.6-2.79.6-1.37 0-2.43-.27-3.18-.81-.74-.54-1.11-1.3-1.11-2.28H0c0 2.52.98 4.5 2.96 5.97 1.98 1.46 4.64 2.19 7.99 2.19 3.35 0 5.81-.69 7.7-2.06 1.4-1.01 2.28-2.28 2.65-3.81 1.15 1.8 2.73 3.22 4.73 4.25 2.08 1.08 4.41 1.61 7 1.61 2.58 0 4.91-.53 6.98-1.6 2.07-1.06 3.69-2.54 4.86-4.44.28-.46.53-.93.75-1.42.33 1.81.97 3.32 1.92 4.51 1.48 1.86 3.54 2.79 6.17 2.79 1.92 0 3.56-.52 4.93-1.57 1.37-1.06 2.51-2.68 3.42-4.87l.31.16 1.65.87c-.91 1.66-1.45 3.32-1.61 4.96h6.88V20.47c0-1.93.43-3.41 1.3-4.42.87-1.02 2.13-1.52 3.78-1.52 1.66 0 2.92.5 3.77 1.51.85 1 1.28 2.48 1.28 4.43v12.26h6.91v-4.94c.4.7.86 1.35 1.4 1.97 2.04 2.33 4.62 3.49 7.74 3.49 2.12 0 3.98-.6 5.61-1.8 1.62-1.2 2.93-2.96 3.93-5.28l2.06.99c-1.2 2.02-1.82 3.88-1.87 5.57h6.69V0h-6.92ZM18.61 20.54c-.86-.47-1.81-.85-2.85-1.15-1.05-.31-2.08-.55-3.12-.73-1.04-.19-1.99-.38-2.84-.58-.87-.21-1.56-.5-2.09-.88-.53-.38-.8-.87-.8-1.46 0-.67.31-1.21.94-1.61.62-.41 1.45-.61 2.48-.61 1.22 0 2.18.26 2.88.78.7.52 1.06 1.21 1.09 2.08h5.99c-.58 1.42-.87 2.95-.87 4.59v.14a4.79 4.79 0 0 0-.82-.57h.01Zm19.28 5.12c-1.25 1.2-2.87 1.81-4.86 1.81-1.99 0-3.64-.61-4.9-1.81-1.25-1.2-1.88-2.77-1.88-4.7 0-1.94.63-3.55 1.88-4.75 1.26-1.2 2.89-1.81 4.9-1.81 2.02 0 3.62.61 4.86 1.81 1.25 1.2 1.88 2.78 1.88 4.75 0 1.96-.63 3.5-1.88 4.7Zm65.28-.01c-1.26 1.21-2.91 1.81-4.94 1.81-2.02 0-3.63-.6-4.87-1.79-1.23-1.19-1.85-2.77-1.85-4.72 0-1.95.62-3.54 1.85-4.75 1.24-1.2 2.87-1.8 4.87-1.8 2.01 0 3.67.6 4.94 1.81 1.26 1.21 1.89 2.79 1.89 4.74 0 1.95-.63 3.49-1.89 4.69v.01ZM9.82 64c-2.83 0-5.17-.95-7.03-2.82C.92 59.3 0 56.93 0 54.06c0-2.85.92-5.21 2.78-7.08 1.86-1.86 4.21-2.79 7.05-2.79 2.28 0 4.28.62 5.99 1.85s2.85 2.89 3.43 4.97h-1.81c-.58-1.61-1.55-2.86-2.88-3.77-1.35-.92-2.91-1.38-4.7-1.38-2.36 0-4.3.77-5.82 2.32-1.53 1.53-2.29 3.5-2.29 5.88 0 2.4.76 4.37 2.28 5.91 1.52 1.55 3.47 2.32 5.84 2.32 1.85 0 3.46-.49 4.84-1.46s2.33-2.3 2.87-3.98h1.75c-.57 2.17-1.71 3.89-3.42 5.19-1.72 1.3-3.74 1.95-6.07 1.95l-.02.01Zm19.62-.47c-2.84.21-4.81-.11-5.91-.97-1.09-.85-1.63-2.5-1.63-4.94v-20.8h1.75v20.77c0 .56.02 1.04.07 1.43.04.4.12.77.23 1.1.11.34.26.61.46.81.19.19.44.38.72.54.3.17.64.27 1.05.31.4.04.88.07 1.42.11.55.03 1.16.01 1.84-.07v1.72-.01Zm7.52.43c-2.27 0-4.03-.47-5.29-1.4-1.25-.93-1.88-2.24-1.88-3.91 0-1.51.5-2.74 1.49-3.7 1-.97 2.38-1.55 4.15-1.76l6.72-.8c1.43-.17 2.44-.45 3.02-.86.59-.41.88-1.04.88-1.88 0-1.22-.54-2.16-1.63-2.82-1.09-.67-2.65-1-4.67-1s-3.61.35-4.76 1.05c-1.15.7-1.91 1.79-2.3 3.25h-1.75c.83-3.96 3.76-5.94 8.8-5.94 2.56 0 4.54.51 5.94 1.51 1.41 1.01 2.11 2.44 2.11 4.29v9.8c0 .91.18 1.49.54 1.75.36.26 1.12.36 2.29.29v1.67c-1.78.15-3-.13-3.66-.84-.66-.71-.86-1.96-.59-3.74l-.69-.15c-1.52 3.47-4.44 5.2-8.73 5.2l.01-.01Zm.14-1.66c2.87 0 5.07-.82 6.61-2.46 1.54-1.64 2.44-4.11 2.72-7.42l-.65-.26c-.37.57-.84.99-1.39 1.28-.55.28-1.36.47-2.41.58l-6.22.73c-1.33.15-2.36.56-3.09 1.25-.74.68-1.1 1.55-1.1 2.61 0 1.2.47 2.12 1.41 2.75.95.62 2.32.94 4.12.94Zm15.74-22.32v-3.13H56v3.13h-3.16Zm.72 23.55V44.64h1.77v18.89h-1.77Zm7.07 0V44.64h1.76a24.7 24.7 0 0 1-.06 2.47c-.06.6-.18 1.27-.37 2l.73.26c1.47-3.45 3.89-5.18 7.24-5.18 1.77 0 3.32.48 4.64 1.45 1.31.96 2.22 2.27 2.72 3.92h.65c.63-1.72 1.59-3.04 2.87-3.97 1.29-.93 2.81-1.4 4.58-1.4 2.46 0 4.43.85 5.92 2.54 1.49 1.68 2.23 3.91 2.23 6.68v10.12h-1.75v-9.91c0-2.37-.6-4.26-1.81-5.65-1.2-1.4-2.82-2.1-4.84-2.1-2.15 0-3.89.74-5.22 2.22-1.32 1.49-1.99 3.43-1.99 5.83v9.61h-1.71v-9.91c0-2.37-.6-4.26-1.79-5.65-1.19-1.4-2.8-2.1-4.84-2.1-2.12 0-3.85.75-5.19 2.23-1.34 1.49-2.02 3.43-2.02 5.82v9.61h-1.77.02Zm43.79.47c-2.45 0-4.37-.55-5.76-1.64-1.39-1.08-2.16-2.61-2.29-4.59h1.72c.13 1.49.74 2.63 1.81 3.41 1.07.78 2.58 1.17 4.52 1.17 1.81 0 3.23-.32 4.27-.99 1.03-.66 1.55-1.57 1.55-2.76 0-.77-.25-1.4-.74-1.9-.5-.5-1.15-.86-1.94-1.08-.79-.22-1.67-.41-2.62-.57-.96-.15-1.92-.34-2.88-.54-.96-.21-1.84-.48-2.64-.81a4.52 4.52 0 0 1-1.93-1.55c-.5-.7-.75-1.57-.75-2.61 0-1.71.64-3.02 1.92-3.96 1.28-.94 3-1.41 5.18-1.41 2.23 0 3.99.51 5.29 1.52 1.29 1.02 2 2.44 2.14 4.28h-1.72c-.22-2.77-2.13-4.16-5.71-4.16-1.81 0-3.14.33-4.03.98-.88.66-1.32 1.56-1.32 2.71 0 .81.25 1.48.75 1.99.49.51 1.14.89 1.93 1.13.8.24 1.67.42 2.63.57.95.15 1.91.32 2.87.52.96.2 1.84.46 2.64.78.79.32 1.44.83 1.93 1.51.5.69.75 1.53.75 2.55 0 1.68-.67 3-2.03 3.97-1.35.97-3.2 1.45-5.55 1.45l.01.03Z"/></g></svg>