<?xml version="1.0" encoding="UTF-8"?>
<!DOCTYPE svg PUBLIC "-//W3C//DTD SVG 1.1//EN" "http://www.w3.org/Graphics/SVG/1.1/DTD/svg11.dtd">
<svg xmlns="http://www.w3.org/2000/svg" xmlns:xlink="http://www.w3.org/1999/xlink">
	<defs>
    <clipPath id="a">
      <path fill="#fff" d="M0 0h15v15H0z"/>
    </clipPath>
  
    <clipPath id="a">
      <path fill="#fff" d="M0 0h15v15H0z"/>
    </clipPath>
  </defs>
<symbol id="arrow-left-rounded" viewBox="0 0 24 24"><g style="enable-background:new 0 0 512 512">
  <path d="M22 11H4.414l5.293-5.293a1 1 0 1 0-1.414-1.414l-7 7a1 1 0 0 0 0 1.414l7 7a1 1 0 0 0 1.414-1.414L4.414 13H22a1 1 0 0 0 0-2z" data-original="#000000"/>
</g></symbol>
<symbol id="arrow-left" viewBox="0 0 52 52">
  <path d="M36 27.25a1.25 1.25 0 1 0 0-2.5v2.5Zm-20.884-2.134a1.25 1.25 0 0 0 0 1.768l7.955 7.955a1.25 1.25 0 1 0 1.768-1.768L17.768 26l7.07-7.071a1.25 1.25 0 1 0-1.767-1.768l-7.955 7.955ZM36 24.75H16v2.5h20v-2.5Z"/>
</symbol>
<symbol id="arrow-right-rounded" viewBox="0 0 24 24"><g style="enable-background:new 0 0 512 512">
  <path d="m22.707 11.293-7-7a1 1 0 0 0-1.414 1.414L19.586 11H2a1 1 0 0 0 0 2h17.586l-5.293 5.293a1 1 0 1 0 1.414 1.414l7-7a1 1 0 0 0 0-1.414z" data-original="#000000"/>
</g></symbol>
<symbol id="arrow-right-white" viewBox="0 0 12.097 9.991"><g fill="none">
  <path d="M9.53 4.24 6.57 1.28c-.3-.3-.3-.77 0-1.06.29-.3.76-.3 1.06 0l4.24 4.24c.3.3.3.76 0 1.06L7.63 9.76c-.3.3-.77.3-1.06 0-.3-.29-.3-.76 0-1.06l2.96-2.96H0v-1.5h9.53Z" fill="#FFF" fill-rule="evenodd"/>
</g></symbol>
<symbol id="arrow-right-yellow" viewBox="0 0 11.753 9.991"><g fill="none">
  <path d="M9.18 5.74 6.22 8.7c-.29.3-.29.77 0 1.06.3.3.77.3 1.06 0l4.25-4.24c.29-.3.29-.76 0-1.06L7.28.22c-.29-.3-.76-.3-1.06 0-.29.29-.29.76 0 1.06l2.96 2.96H0v1.5h9.18Z" fill="#E2F038" fill-rule="evenodd"/>
</g></symbol>
<symbol id="arrow-right" viewBox="0 0 10.753 9.991">
  <path d="M8.18 4.24 5.22 1.28a.754.754 0 0 1 0-1.06c.3-.3.77-.3 1.06 0l4.25 4.24c.29.3.29.76 0 1.06L6.28 9.76c-.29.3-.76.3-1.06 0a.754.754 0 0 1 0-1.06l2.96-2.96H0v-1.5h8.18Z"/>
</symbol>
<symbol id="close" viewBox="0 0 30 30"><g fill="none">
  <path stroke="#fff" stroke-width="2" stroke-linecap="round" d="M21.56 8.126 8.125 21.561M21.545 21.588 8.11 8.153"/>
</g></symbol>
<symbol id="dollar" viewBox="0 0 15 15">
  <g clip-path="url(#a)">
    <path d="M7.5 0C3.366 0 0 3.365 0 7.5 0 11.637 3.365 15 7.5 15c4.136 0 7.5-3.364 7.5-7.5C15 3.366 11.636 0 7.5 0m2.206 10.047c-.209.29-.505.52-.88.681q-.384.166-.843.216v.896a.52.52 0 0 1-1.039 0v-.902a5.5 5.5 0 0 1-1.63-.42.55.55 0 0 1-.241-.198.52.52 0 0 1-.098-.303.52.52 0 0 1 .142-.362.49.49 0 0 1 .37-.158q.12 0 .229.048c.388.173.8.285 1.228.334V7.986a9 9 0 0 1-.702-.235 2.24 2.24 0 0 1-.837-.57c-.243-.262-.366-.613-.366-1.044 0-.372.1-.716.296-1.02.197-.305.488-.55.867-.727q.333-.157.742-.22V3.16a.52.52 0 0 1 1.039 0v.98a5.1 5.1 0 0 1 1.43.296.49.49 0 0 1 .346.494q0 .196-.133.353a.47.47 0 0 1-.566.121 4.4 4.4 0 0 0-1.077-.224v1.935q.524.138.88.278.474.186.813.577.347.407.348 1.077 0 .556-.318 1"/>
    <path d="M8.306 8.376a7 7 0 0 0-.323-.103v1.6c.636-.094.945-.383.945-.88a.45.45 0 0 0-.16-.356 1.4 1.4 0 0 0-.462-.261M6.145 6.074c0 .182.057.325.173.437q.195.185.49.29l.136.045V5.249q-.23.063-.412.173c-.26.158-.387.37-.387.652"/>
    <path fill="#fff" d="M8.863 7.392a8 8 0 0 0-.88-.277V5.18c.367.03.73.105 1.077.225a.468.468 0 0 0 .566-.121.54.54 0 0 0 .133-.354.49.49 0 0 0-.345-.494 5.1 5.1 0 0 0-1.431-.296v-.98a.52.52 0 0 0-1.039 0v1.01q-.409.063-.742.22-.57.268-.866.727a1.85 1.85 0 0 0-.297 1.02c0 .43.123.782.366 1.045.232.252.514.443.838.57q.294.115.701.234V9.88a4.2 4.2 0 0 1-1.228-.334.6.6 0 0 0-.23-.048.49.49 0 0 0-.37.158.52.52 0 0 0-.14.363q0 .161.097.302a.55.55 0 0 0 .241.198c.512.222 1.06.363 1.63.42v.902a.52.52 0 0 0 1.039 0v-.895q.459-.052.843-.217a2.05 2.05 0 0 0 .88-.681 1.68 1.68 0 0 0 .319-1c0-.445-.118-.808-.35-1.076a2.05 2.05 0 0 0-.812-.579m-1.919-.546L6.81 6.8a1.4 1.4 0 0 1-.491-.29.57.57 0 0 1-.173-.437c0-.281.127-.495.387-.652q.181-.11.412-.173zm1.039 3.028V8.273q.192.057.323.103.277.097.462.261.161.142.16.356c0 .497-.31.786-.945.88"/>
  </g>
  
</symbol>
<symbol id="flag" viewBox="0 0 12 15">
  <path d="M11.482 1.542a.49.49 0 0 0-.534 0c-1.87 1.175-3.258.427-4.806-.427C4.539.26 2.67-.701.267.74.107.9 0 1.06 0 1.275v13.191c0 .32.214.534.534.534s.534-.214.534-.534V9.072c1.762-.961 3.044-.267 4.54.534 1.014.534 2.136 1.122 3.418 1.122.747 0 1.602-.214 2.456-.748a.56.56 0 0 0 .267-.48V2.021a.56.56 0 0 0-.267-.48"/>
</symbol>
<symbol id="hammer" viewBox="0 0 15 15">
  <g clip-path="url(#a)">
    <path d="M14.679 12.175 11.533 9.03a1.1 1.1 0 0 0-.788-.32q-.46 0-.832.372L7.695 6.863l1.092-1.091q.12-.122.121-.295a.4.4 0 0 0-.121-.295l.104.109q.086.09.113.108.026.017.099.087t.117.086.117.052a.6.6 0 0 0 .143.048.86.86 0 0 0 .745-.23l.157-.143q.129-.117.177-.165a3 3 0 0 0 .143-.16q.096-.112.135-.19t.078-.191a.803.803 0 0 0-.204-.815L7.175.243a.8.8 0 0 0-.814-.204 2 2 0 0 0-.19.078q-.079.038-.191.135a3 3 0 0 0-.16.143 6 6 0 0 0-.165.177l-.143.156a.84.84 0 0 0-.23.745.6.6 0 0 0 .048.143l.052.117q.017.044.086.117a1 1 0 0 1 .087.1 1 1 0 0 0 .108.113l.109.104a.4.4 0 0 0-.295-.121.4.4 0 0 0-.295.12L2.166 5.184a.4.4 0 0 0-.121.294.4.4 0 0 0 .121.295l-.104-.109a1 1 0 0 0-.112-.108 1 1 0 0 1-.1-.086.4.4 0 0 0-.117-.087l-.117-.052a.6.6 0 0 0-.143-.048.85.85 0 0 0-.745.23q-.026.026-.156.143a6 6 0 0 0-.178.165q-.047.047-.143.16a1 1 0 0 0-.134.19 2 2 0 0 0-.078.191.7.7 0 0 0-.039.226q0 .346.243.589l3.535 3.535a.8.8 0 0 0 .815.204 2 2 0 0 0 .19-.078q.079-.039.19-.134.114-.096.161-.143.048-.048.165-.178t.143-.156a.84.84 0 0 0 .23-.745.6.6 0 0 0-.048-.143l-.052-.117a.4.4 0 0 0-.087-.118 1 1 0 0 1-.086-.1 1 1 0 0 0-.109-.112l-.108-.104a.4.4 0 0 0 .295.121.4.4 0 0 0 .294-.121l1.092-1.092 2.218 2.218q-.372.373-.372.832 0 .468.329.78l3.146 3.154q.32.32.78.32.45 0 .788-.32l.927-.936q.321-.32.321-.78 0-.45-.321-.788"/>
  </g>
  
</symbol>
<symbol id="mobile-menu" viewBox="0 0 312.428 506.618"><g fill="none">
  <path d="M193.86 18.53C173.44 7.83 153.29 1.77 133.4.39H18.29C8.19.39 0 8.01 0 17.41v469.2c0 11.05 8.95 20 20 20h272.42c11.05 0 20-8.95 20-20V17.02c0-9.4-8.19-17.02-18.29-17.02h-89.61l-10.66 18.53Z" fill="#FFF"/>
</g></symbol>
<symbol id="upload"><g fill="none">
  <path d="M17.62 36.62V22.37m-7.12 4.75 7.12-4.75 7.13 4.75m9.49-11.87c0-.68-.03-1.11-.13-1.52-.11-.49-.31-.95-.57-1.37-.29-.48-.7-.89-1.52-1.72L24.6 3.22c-.82-.82-1.24-1.23-1.71-1.52a4.63 4.63 0 0 0-1.38-.57C21.1 1.03 20.67 1 20 1H8.59c-2.66 0-3.99 0-5 .51-.9.46-1.62 1.18-2.08 2.08C1 4.6 1 5.94 1 8.6v27.55c0 2.66 0 3.99.51 5 .46.9 1.18 1.62 2.08 2.08 1.01.52 2.34.52 5 .52h18.06c2.66 0 3.99 0 5-.52.89-.46 1.62-1.19 2.08-2.08.52-1.01.52-2.34.52-5V16.02c0-.29 0-.55-.01-.77m.01 0h-6.66c-2.66 0-3.99 0-5-.52-.9-.46-1.62-1.19-2.08-2.08-.51-1.02-.51-2.34-.51-5V1"/>
</g></symbol>
<symbol id="wallet" viewBox="0 0 17 15">
  <path d="M14.444 4.6H2.31c-.636 0-1.155-.52-1.155-1.155 0-.636.52-1.156 1.155-1.156h2.311c.347 0 .578-.23.578-.577s-.231-.578-.578-.578h-2.31A2.32 2.32 0 0 0 0 3.445v9.244A2.32 2.32 0 0 0 2.311 15h12.133c.982 0 1.733-.751 1.733-1.733V6.334c0-.982-.751-1.734-1.733-1.734m.578 3.351v3.698a1.71 1.71 0 0 0-.578-.115h-2.311A1.7 1.7 0 0 1 10.4 9.8c0-.982.75-1.733 1.733-1.733h2.31c.232 0 .405-.058.579-.116"/>
  <path d="M2.889 2.867c-.347 0-.578.231-.578.578s.231.578.578.578h10.977c.174 0 .347-.116.463-.231a.56.56 0 0 0 .057-.52L13.231.382c-.116-.288-.462-.461-.751-.346L5.084 2.867zm10.399 6.355h-1.155c-.347 0-.578.232-.578.578 0 .347.231.578.578.578h1.155c.347 0 .578-.231.578-.578 0-.346-.23-.578-.578-.578"/>
</symbol>
</svg>