<?xml version="1.0" encoding="UTF-8"?>
<!DOCTYPE svg PUBLIC "-//W3C//DTD SVG 1.1//EN" "http://www.w3.org/Graphics/SVG/1.1/DTD/svg11.dtd">
<svg xmlns="http://www.w3.org/2000/svg" xmlns:xlink="http://www.w3.org/1999/xlink">
<symbol id="arrow-left-rounded" viewBox="0 0 24 24"><g style="enable-background:new 0 0 512 512">
  <path d="M22 11H4.414l5.293-5.293a1 1 0 1 0-1.414-1.414l-7 7a1 1 0 0 0 0 1.414l7 7a1 1 0 0 0 1.414-1.414L4.414 13H22a1 1 0 0 0 0-2z" data-original="#000000"/>
</g></symbol>
<symbol id="arrow-left" viewBox="0 0 52 52">
  <path d="M36 27.25a1.25 1.25 0 1 0 0-2.5v2.5Zm-20.884-2.134a1.25 1.25 0 0 0 0 1.768l7.955 7.955a1.25 1.25 0 1 0 1.768-1.768L17.768 26l7.07-7.071a1.25 1.25 0 1 0-1.767-1.768l-7.955 7.955ZM36 24.75H16v2.5h20v-2.5Z"/>
</symbol>
<symbol id="arrow-right-rounded" viewBox="0 0 24 24"><g style="enable-background:new 0 0 512 512">
  <path d="m22.707 11.293-7-7a1 1 0 0 0-1.414 1.414L19.586 11H2a1 1 0 0 0 0 2h17.586l-5.293 5.293a1 1 0 1 0 1.414 1.414l7-7a1 1 0 0 0 0-1.414z" data-original="#000000"/>
</g></symbol>
<symbol id="arrow-right-white" viewBox="0 0 12.097 9.991"><g fill="none">
  <path d="M9.53 4.24 6.57 1.28c-.3-.3-.3-.77 0-1.06.29-.3.76-.3 1.06 0l4.24 4.24c.3.3.3.76 0 1.06L7.63 9.76c-.3.3-.77.3-1.06 0-.3-.29-.3-.76 0-1.06l2.96-2.96H0v-1.5h9.53Z" fill="#FFF" fill-rule="evenodd"/>
</g></symbol>
<symbol id="arrow-right-yellow" viewBox="0 0 11.753 9.991"><g fill="none">
  <path d="M9.18 5.74 6.22 8.7c-.29.3-.29.77 0 1.06.3.3.77.3 1.06 0l4.25-4.24c.29-.3.29-.76 0-1.06L7.28.22c-.29-.3-.76-.3-1.06 0-.29.29-.29.76 0 1.06l2.96 2.96H0v1.5h9.18Z" fill="#E2F038" fill-rule="evenodd"/>
</g></symbol>
<symbol id="arrow-right">
  <path fill-rule="evenodd" d="M8.68 4.24 5.72 1.28a.754.754 0 0 1 0-1.06c.3-.3.77-.3 1.06 0l4.25 4.24c.29.3.29.76 0 1.06L6.78 9.76c-.29.3-.76.3-1.06 0a.754.754 0 0 1 0-1.06l2.96-2.96H0v-1.5h8.68Z"/>
</symbol>
<symbol id="mobile-menu" viewBox="0 0 312.428 506.618"><g fill="none">
  <path d="M193.86 18.53C173.44 7.83 153.29 1.77 133.4.39H18.29C8.19.39 0 8.01 0 17.41v469.2c0 11.05 8.95 20 20 20h272.42c11.05 0 20-8.95 20-20V17.02c0-9.4-8.19-17.02-18.29-17.02h-89.61l-10.66 18.53Z" fill="#FFF"/>
</g></symbol>
<symbol id="upload"><g fill="none">
  <path d="M17.62 36.62V22.37m-7.12 4.75 7.12-4.75 7.13 4.75m9.49-11.87c0-.68-.03-1.11-.13-1.52-.11-.49-.31-.95-.57-1.37-.29-.48-.7-.89-1.52-1.72L24.6 3.22c-.82-.82-1.24-1.23-1.71-1.52a4.63 4.63 0 0 0-1.38-.57C21.1 1.03 20.67 1 20 1H8.59c-2.66 0-3.99 0-5 .51-.9.46-1.62 1.18-2.08 2.08C1 4.6 1 5.94 1 8.6v27.55c0 2.66 0 3.99.51 5 .46.9 1.18 1.62 2.08 2.08 1.01.52 2.34.52 5 .52h18.06c2.66 0 3.99 0 5-.52.89-.46 1.62-1.19 2.08-2.08.52-1.01.52-2.34.52-5V16.02c0-.29 0-.55-.01-.77m.01 0h-6.66c-2.66 0-3.99 0-5-.52-.9-.46-1.62-1.19-2.08-2.08-.51-1.02-.51-2.34-.51-5V1"/>
</g></symbol>
</svg>